<svg id="expanded_rounded" data-name="expanded rounded" xmlns="http://www.w3.org/2000/svg" viewBox="0 0 2086.48 2086.48"><defs><style>.cls-1{fill:#fff;}</style></defs><title>44</title><path class="cls-1" d="M2583.74,1502.27a20,20,0,0,1-20,20H1750.29a119.65,119.65,0,0,1-83.21-205.62l584-565.15a20,20,0,0,1,28.3.46l76.48,79a20,20,0,0,1-.46,28.3l-494.52,478.58c-12.93,12.51-4.07,34.4,13.92,34.4h689a20,20,0,0,1,20,20Z" transform="translate(-497.26 -444.68)"/><path class="cls-1" d="M801.57,2223.78l-76.31-78.85a20.14,20.14,0,0,1,.47-28.47L1220,1638.16c13-12.58,4.09-34.6-14-34.6H517.39a20.13,20.13,0,0,1-20.13-20.13V1473.7a20.14,20.14,0,0,1,20.13-20.14h813.32a119.65,119.65,0,0,1,83.21,205.63L830,2224.25A20.14,20.14,0,0,1,801.57,2223.78Z" transform="translate(-497.26 -444.68)"/><path class="cls-1" d="M1636,2531.16h-109.8a20.09,20.09,0,0,1-20.1-20.1V1697.71a119.65,119.65,0,0,1,205.62-83.21l565.09,583.9a20.1,20.1,0,0,1-.46,28.42l-78.91,76.36a20.1,20.1,0,0,1-28.42-.46l-478.38-494.31c-12.56-13-34.54-4.09-34.54,14v688.67A20.09,20.09,0,0,1,1636,2531.16Z" transform="translate(-497.26 -444.68)"/><path class="cls-1" d="M1444.83,444.68h109.8a20.1,20.1,0,0,1,20.1,20.1v813.35a119.65,119.65,0,0,1-205.63,83.21L804,777.44a20.1,20.1,0,0,1,.46-28.42l78.9-76.36a20.09,20.09,0,0,1,28.42.47l478.38,494.3c12.57,13,34.55,4.09,34.55-14V464.78A20.1,20.1,0,0,1,1444.83,444.68Z" transform="translate(-497.26 -444.68)"/><circle class="cls-1" cx="1314.7" cy="397.12" r="97.08"/></svg>