<?xml version="1.0" encoding="utf-8"?>
<!-- Generator: Adobe Illustrator 24.3.0, SVG Export Plug-In . SVG Version: 6.00 Build 0)  -->
<svg version="1.1" xmlns="http://www.w3.org/2000/svg" xmlns:xlink="http://www.w3.org/1999/xlink" x="0px" y="0px"
	 viewBox="0 0 2650.5 414" style="enable-background:new 0 0 2650.5 414;" xml:space="preserve">
<g id="Layer_1">
	<g>
		<path d="M426,333.5H149.6c-4.2,0-7-4.4-5.2-8.2l16.2-34.9c0.9-2,3-3.3,5.2-3.3h187.5c2.2,0,4.2-1.3,5.2-3.3l6-12.6
			c1.8-3.8-1-8.2-5.2-8.2H182.7c-4.2,0-7-4.4-5.2-8.2l37.8-80.8l11.1-24.5c0.9-2.1,3-3.4,5.2-3.4h276.9c4.2,0,7,4.4,5.2,8.2
			l-16.7,35.2c-1,2-3,3.3-5.2,3.3H304.4c-2.2,0-4.3,1.3-5.2,3.3l-5.6,12.3c-1.8,3.8,1,8.2,5.2,8.2h176.8c4.2,0,7,4.4,5.2,8.2
			l-49.5,105.3C430.3,332.2,428.2,333.5,426,333.5"/>
		<path d="M631.8,196.2l-38.9,82.7c-1.8,3.8,1,8.2,5.2,8.2h176.2c4.2,0,7,4.4,5.2,8.2l-16.2,34.9c-0.9,2-3,3.3-5.2,3.3H482.3
			c-4.2,0-7-4.4-5.2-8.2L548,174.1l12.3-24.6c1-2,3-3.2,5.1-3.2h275c4.2,0,7,4.4,5.2,8.2l-16.5,35.2c-0.9,2-3,3.3-5.2,3.3H637
			C634.8,192.9,632.7,194.2,631.8,196.2"/>
		<path d="M880.1,174.1l11.2-24.5c0.9-2,3-3.4,5.2-3.4h82c4.2,0,7,4.4,5.2,8.2L925,278.9c-1.8,3.8,1,8.2,5.2,8.2h88.2
			c2.2,0,4.3-1.3,5.2-3.3l63.4-134.3c0.9-2,3-3.3,5.2-3.3h81.5c4.2,0,7,4.4,5.2,8.2l-82.6,175.8c-0.9,2-3,3.3-5.2,3.3H814.4
			c-4.2,0-7-4.4-5.2-8.2L880.1,174.1z"/>
		<path d="M1296.8,196.2l-5.6,12.3c-1.8,3.8,1,8.2,5.2,8.2h176.8c4.2,0,7,4.4,5.2,8.2l-16.4,34.9c-0.9,2-3,3.3-5.2,3.3h-187.5
			c-2.2,0-4.3,1.3-5.2,3.3l-30,63.8c-0.9,2-3,3.3-5.2,3.3h-81.5c-4.2,0-7-4.4-5.2-8.2l70.9-151.3l11.2-24.5c0.9-2,3-3.4,5.2-3.4
			h276.8c4.2,0,7,4.4,5.2,8.2l-16.7,35.2c-1,2-3,3.3-5.2,3.3h-187.5C1299.8,192.9,1297.8,194.2,1296.8,196.2"/>
		<path d="M1629.5,196.2l-5.6,12.3c-1.8,3.8,1,8.2,5.2,8.2h176.8c4.2,0,7,4.4,5.2,8.2l-16.4,34.9c-0.9,2-3,3.3-5.2,3.3h-187.5
			c-2.2,0-4.3,1.3-5.2,3.3l-30,63.8c-0.9,2-3,3.3-5.2,3.3H1480c-4.2,0-7-4.4-5.2-8.2l70.9-151.3l11.5-24.5c0.9-2,3-3.3,5.2-3.3
			h276.6c4.2,0,7,4.4,5.2,8.2l-16.7,35.2c-1,2-3,3.3-5.2,3.3h-187.5C1632.5,192.9,1630.4,194.2,1629.5,196.2"/>
		<path d="M1962.1,196.2l-5.6,12.3c-1.8,3.8,1,8.2,5.2,8.2h177.1c4.2,0,7,4.4,5.2,8.2l-16.4,34.9c-0.9,2-3,3.3-5.2,3.3h-187.9
			c-2.2,0-4.2,1.3-5.2,3.3l-6,12.6c-1.8,3.8,1,8.2,5.2,8.2h177.2c4.2,0,7,4.4,5.2,8.2l-16.4,34.9c-0.9,2-3,3.3-5.2,3.3h-276.7
			c-4.2,0-7-4.4-5.2-8.2l70.9-151.3l11.8-24.6c1-2,3-3.3,5.2-3.3h276.6c4.2,0,7,4.4,5.2,8.2l-16.5,35.2c-0.9,2-3,3.3-5.2,3.3h-188.1
			C1965.1,192.9,1963.1,194.2,1962.1,196.2"/>
		<path d="M2148.1,333.5c-5.4,0-9-5.6-6.7-10.5l69.8-148.9l11.3-23.6c1.2-2.6,3.8-4.2,6.7-4.2h273c5.4,0,9,5.6,6.7,10.5l-55.4,117.9
			c-0.7,1.5-1.9,2.7-3.4,3.5L2341,332.7c-1,0.5-2.2,0.8-3.3,0.8H2148.1z M2385.9,192.9h-84.6c-2.9,0-5.5,1.7-6.7,4.2l-37.4,79.5
			c-2.3,4.9,1.3,10.5,6.7,10.5h37.6c1.2,0,2.4-0.3,3.4-0.8l62.6-32.8c1.4-0.8,2.6-2,3.3-3.4l21.8-46.7
			C2394.9,198.5,2391.3,192.9,2385.9,192.9"/>
		<path d="M2634.1,68.9H164.9c-6.3,0-12.1,3.6-14.8,9.3L1.6,390.6C-3.6,401.5,4.4,414,16.4,414h2376.5l136.2-69.7l119.8-252
			C2654.1,81.4,2646.1,68.9,2634.1,68.9 M2593.5,127.3l-84.1,177c-1.6,3.3-4.2,6-7.4,7.6l-129.8,65.4c-2.3,1.2-4.8,1.8-7.4,1.8H71.8
			c-12,0-20-12.5-14.8-23.4l115.2-242.4c2.7-5.7,8.5-9.3,14.8-9.3h2391.7C2590.7,103.9,2598.7,116.4,2593.5,127.3"/>
	</g>
</g>
<g id="Dots">
	<path d="M336.2,20.2c0,11.2-12.4,20.2-27.7,20.2c-15.3,0-27.7-9.1-27.7-20.2C280.8,9.1,293.2,0,308.5,0
		C323.8,0,336.2,9.1,336.2,20.2"/>
	<path d="M422.7,20.2c0,11.2-12.4,20.2-27.7,20.2c-15.3,0-27.7-9.1-27.7-20.2C367.3,9.1,379.7,0,395,0C410.3,0,422.7,9.1,422.7,20.2
		"/>
</g>
</svg>
